<svg xmlns="http://www.w3.org/2000/svg" width="50" height="33.658" viewBox="0 0 50 33.658">
  <symbol id="iconCatalogue" width="54.824" height="28.99" viewBox="0 0 54.824 28.99">
    <path class="a" d="M52.1,17.56h-3V14.083a1,1,0,0,0-.673-.945c-6.128-2.124-16.4-1.771-20.327,3.121-3.934-4.891-14.2-5.245-20.327-3.121a1,1,0,0,0-.673.945V17.56h-3a1,1,0,0,0-1,1v26a1,1,0,0,0,1,1h48a1,1,0,0,0,1-1v-26A1,1,0,0,0,52.1,17.56Zm-5-2.751V38.684c-5.647-1.552-12.975-1.154-18,2.981V18.314C31.465,13.891,40.579,12.826,47.1,14.809Zm-38,0c6.522-1.983,15.636-.918,18,3.5V41.665a18.382,18.382,0,0,0-11.74-3.818,23.81,23.81,0,0,0-6.26.837Zm-4,4.751h2V40.04a1,1,0,0,0,1.327.945c5.391-1.868,12.982-1.746,17.8,2.575H5.1Zm46,24H29.979c4.814-4.319,12.4-4.442,17.8-2.575A1,1,0,0,0,49.1,40.04V19.56h2Z" transform="translate(-3.102 -11.902)"/>
  </symbol>
</svg>
