<svg xmlns="http://www.w3.org/2000/svg" width="54.824" height="28.99">
  <symbol id="iconVehicles" width="54.824" height="28.99" viewBox="0 0 54.824 28.99">
    <g transform="translate(-560.073 -357.623)">
      <circle cx=".74" cy=".74" r=".74" transform="translate(605.166 379.307)"/>
      <path d="M562.38 368.2h13.693a2.31 2.31 0 002.307-2.306v-5.961a2.31 2.31 0 00-2.307-2.306H562.38a2.309 2.309 0 00-2.307 2.306v5.961a2.309 2.309 0 002.307 2.306zm-.807-8.267a.808.808 0 01.807-.806h13.693a.808.808 0 01.807.806v5.961a.808.808 0 01-.807.806H562.38a.808.808 0 01-.807-.806z"/>
      <path d="M564.074 360.031l1.012-.003.016 5.757-1.012.003zM566.034 361.207v.016l.008.008h.044l.944.251v-.282l.008-.021.008-.017.008-.016.012-.016.012-.012.012-.012.012-.012.012-.012.012-.012.016-.008.016-.012.016-.008.016-.008.016-.008.021-.008H568.418l.016.008.016.008.016.012.012.008.016.012.012.012.012.008.012.016.008.012.012.012.008.016.008.012.008.012V361.307l.008.684V362.194l-.008.021-.012.021-.008.008-.012.021-.012.021-.016.016-.021.021-.021.021-.025.025-.025.021-.025.025-.029.025-.033.029-.016.008-.012.012-.012.012-.012.008-.012.008-.045.045-.021.016-.008.008h-.008l-.008.012-.008.008-.012.008-.008.008-.012.012-.012.012-.017.012-.012.012-.016.012-.012.017-.016.016-.021.012-.016.017-.016.016-.021.021-.021.017-.021.021-.021.021-.021.016-.025.021-.025.025-.025.021-.025.025-.025.021-.029.025-.025.025-.029.025-.029.029-.029.025-.033.029-.029.029-.033.029-.033.029-.033.029-.033.033-.033.029-.037.033-.037.033-.037.033-.037.033-.037.037-.041.037-.037.033-.041.037-.041.037-.045.041-.041.037-.045.037-.041.041-.045.041-.045.041-.029.021-.025.025-.025.021-.025.025-.012.008-.016.017-.012.008-.012.016-.033.025-.033.029-.033.033-.033.029-.033.033-.029.033-.016.016-.012.012-.012.016-.012.012-.012.012-.008.008-.008.012-.008.008-.008.008-.008.012-.008.008-.008.012-.008.008-.012.012-.008.012-.012.016-.008.008-.008.012-.008.012-.008.012v.008l-.008.012v.008l-.012.029-.016.021-.012.025-.012.025-.017.041-.021.037-.016.041-.017.037-.012.041-.012.041-.012.041-.012.041-.008.037-.008.045-.008.041-.008.045-.008.045v.041l-.008.045V365.729h3.656v-1.01l-2.135.021h-.012v-.032l.012-.025.008-.008.008-.012.008-.008.008-.008h.008l.008-.012.008-.008.012-.008.008-.008.012-.012.012-.012.012-.012.017-.012.012-.012.016-.016.017-.016 1.435-1.323.021-.021.021-.016.021-.016.016-.016.016-.012.017-.016.016-.012.016-.012.012-.012.012-.012.012-.012.008-.008.012-.012.008-.008.008-.008.008-.008.012-.016.012-.012v-.016l.012-.016.012-.016.012-.017.025-.033.021-.037.021-.033.017-.037.016-.033.029-.074v-.008l.008-.016.012-.037.008-.016v-.042l.008-.016V362.202l.008-.915V360.979l-.008-.021v-.02l-.012-.045-.008-.021-.008-.016-.008-.021v-.016l-.008-.016-.008-.016v-.008l-.008-.016-.012-.021-.008-.008-.008-.016-.012-.021-.016-.017v-.012l-.008-.008-.029-.037-.029-.037-.029-.033-.025-.033-.029-.033-.012-.012-.012-.016-.029-.029-.029-.025-.029-.029-.016-.012-.012-.012-.021-.016-.008-.008-.016-.017-.016-.012-.021-.016-.016-.012-.012-.012-.016-.008-.016-.008-.012-.012-.012-.008h-.012l-.016-.008h-.016l-.021-.012-.029-.012-.012-.008-.016-.008h-.012l-.016-.008h-.016l-.021-.008-.016-.008-.021-.008h-.021l-.017-.008H568.577h.023H566.926l-.016.008-.041.012-.037.012-.037.016-.033.012-.033.016-.037.016-.033.016-.016.008-.016.008-.037.021-.016.008-.016.012-.029.025-.033.025-.016.012-.016.016-.029.029-.033.025-.012.012-.016.012-.025.025-.025.029-.021.029-.025.033-.025.033-.008.016-.012.016-.021.033-.008.017-.008.016-.037.07-.021.037-.017.037-.008.016-.008.021-.008.017v.076l-.012.049-.008.025V361.256zM570.684 361.277V361.33l1.006.276.012-.1V361.312l.008-.021v-.021l.008-.025.008-.016.012-.021.008-.016.012-.016.016-.016.012-.012.016-.012.008-.008h.008l.016-.008.037-.016.021-.008.021-.008h1.161l.016.008.021.008.016.008.016.008.016.012.012.008.008.008v.008h.008v.008l.016.016.008.016.012.021.008.021.008.016V362.21l-.012.016-.012.017-.012.012-.017.012h-.008l-.012.012-.017.008-.016.008-.021.008H573.075l-.021.008h-.768v1.026l.511.008H573.037l.021.008.021.008.016.008.016.012.016.008.016.012.017.012.012.016.016.012.012.017.012.016.012.016.012.016.012.016.008.021.008.016.008.021v.021l.008.025V364.438l-.008.025-.008.021v.016l-.008.016v.012l-.008.008v.016l-.012.012-.012.012-.012.008h-.016l-.012.012h-.017l-.012.008h-.016l-.012.008-.041.008-.033.008h-.066l-.713-.008H571.981l-.021-.008h-.021l-.021-.012-.017-.008-.021-.012-.016-.012-.008-.008-.008-.008-.012-.012-.016-.016-.012-.021-.012-.017v-.02l-.008-.021-.008-.025-.012-.045-.012-.041-.008-.045-.008-.041v-.124l-.008-.041-1.014.322v.192l.008.041v.045l.012.045v.021l.008.021.008.041.016.045.012.041.012.037.016.041.021.041.021.037.008.021.012.016.021.037.021.033.025.033.029.037.025.029.029.033.029.029.017.012.016.016.033.029.033.025.021.012.016.012.021.012.016.016.021.008.021.012h.016l.016.012h.02l.017.012.016.008.016.008.033.016.037.016.037.016.045.017.021.008h.042l.016.008H571.672l.033.008h.074l.037.008H573.233l.045-.008h.041l.045-.008.041-.008.045-.012h.033l.041-.012h.021l.021-.008.045-.016.021-.008.021-.008h.008l.012-.008.021-.008.037-.021.037-.021.021-.012.016-.008.016-.012.016-.008.012-.016.016-.008.033-.025.012-.012.008-.008.029-.021.012-.012.012-.016.029-.025.029-.033.025-.033.016-.017.012-.016.025-.033.021-.037.012-.016v-.016l.012-.021v-.016l.016-.041.021-.041.008-.021v-.02l.008-.021.008-.021.016-.041.008-.021v-.016l.016-.037v-.032l.008-.016V364.681v.119-1.176l-.008-.045v-.046l-.012-.045v-.021l-.008-.021-.016-.041-.016-.041-.016-.037-.016-.037-.021-.037-.021-.037-.021-.037-.025-.037-.021-.033-.025-.033-.021-.029-.025-.025-.021-.025-.021-.025-.045-.054-.008-.008v-.048h.008l.008-.012.012-.012.012-.012.012-.017.012-.016.012-.012.012-.021.016-.016.025-.041.025-.037.021-.037.025-.033.016-.041.012-.016.008-.021.021-.037.016-.041.012-.037.017-.041v-.041l.008-.021V362.092l.008-.045V361.174l-.008-.045-.008-.045v-.042l-.012-.041V360.818l-.016-.037-.016-.037-.021-.037-.016-.037-.025-.033-.021-.037-.025-.033-.025-.033-.029-.037-.029-.033-.029-.033-.029-.029-.033-.029-.029-.025-.029-.025-.033-.021-.033-.025-.033-.021-.033-.017-.037-.021-.037-.021-.021-.008-.021-.008-.037-.012-.045-.012-.041-.012-.045-.012-.091-.025H571.7l-.045.008-.041.012-.087.021-.082.025-.041.016-.041.016-.041.016-.037.025-.041.025-.037.025-.033.025-.037.025-.016.012-.016.016-.033.029-.033.029-.029.033-.029.033-.029.033-.025.033-.025.037-.025.033-.025.037-.021.037-.021.041-.021.041-.008.021-.008.025-.008.021-.008.021-.008.025-.008.025v.061l-.008.033v.016L570.7 361V361.25zM613.723 375.267l-.318-.2-.805-1.667a2.483 2.483 0 00-1.928-1.385c-4.756-.6-6.987-.934-7.544-1.05a21.908 21.908 0 01-1.435-1.74 18.185 18.185 0 00-3.25-3.568 3.18 3.18 0 00-1.483-.425l-14.8-.136h-.028a2.916 2.916 0 00-2.586 1.557l-.065.152c-.367 1.1-.688 2.069-.975 2.938h-.137a.755.755 0 00-.641.361.763.763 0 00-.027.734l.272.526-.265.809h-5.98l-.475-.928h.745a.751.751 0 000-1.5h-3.285a.751.751 0 000 1.5h.854l.838 1.643-.942 1.46a6.465 6.465 0 103.57 6.552h.905l-.417 1.358h-.144a.751.751 0 000 1.5h1.8a.751.751 0 000-1.5h-.088l.549-1.787.695-1.073v.083a2.073 2.073 0 00.6 1.45 6.46 6.46 0 0012.713.653h11.817a4.669 4.669 0 008.894 0h1.942a2.583 2.583 0 002.57-2.521l.03-1.589a2.548 2.548 0 00-1.176-2.207zm-30.037 5.548a.749.749 0 00.324-1.011l-2.248-4.361a4.978 4.978 0 11-1.334.69l2.247 4.359a.764.764 0 001.011.323zm-3.953-6.029a6.678 6.678 0 00-.867.7l.684-1.054zm-8.543-.354l2.534 4.965h-.7a6.48 6.48 0 00-2.309-4.235zm.324 4.965h-3.529l1.912-2.961a5 5 0 011.617 2.964zm-4.907 5.715a4.964 4.964 0 010-9.928 4.9 4.9 0 012.03.435l-2.66 4.122a.75.75 0 00.63 1.157h4.908a4.943 4.943 0 01-4.908 4.214zm8.419-6.464l-2.537-4.975h4.729c-.664 2.065-.847 2.723-.894 2.973zm30.88 4.181a2.7 2.7 0 112.7-2.7 2.7 2.7 0 01-2.7 2.7zm6.959-3.807a.573.573 0 01-.57.56h-1.744a4.674 4.674 0 00-9.29 0h-11.482a6.472 6.472 0 00-6.437-5.9 6.392 6.392 0 00-2.275.413l-1.153-2.238.2-.615h1.533a.235.235 0 110 .469h-.525a.751.751 0 000 1.5h.525a1.736 1.736 0 100-3.472h-1.037l.734-2.213a.922.922 0 01.784-.434h.01l14.8.136a1.63 1.63 0 01.4.1 18.558 18.558 0 012.77 3.124c1.284 1.652 1.757 2.232 2.334 2.4.5.149 3.178.533 7.972 1.142a.492.492 0 01.381.275l1.052 2.165.786.509a.566.566 0 01.258.487z"/>
    </g>
  </symbol>
</svg>
