<svg xmlns="http://www.w3.org/2000/svg" width="79.5" height="88.3">
  <symbol id="graphicPublish" width="79.5" height="88.3" viewBox="0 0 79.5 88.3">
    <path d="M66 41H13a2 2 0 00-2 2v43a2 2 0 002 2h53a2 2 0 002-2V43a2 2 0 00-2-2zm-2 4v35L50 66a9 9 0 00-12 0l-4 4-10-11a9 9 0 00-9-2V45zM15 62a5 5 0 016 0l11 10-12 12-1 1h-4zm10 23l11-11 4-5a5 5 0 017 0l16 16z"/>
    <path d="M55 63a7 7 0 10-7-7 7 7 0 007 7zm0-11a4 4 0 11-3 4 4 4 0 013-4zM37 36a2 2 0 104 0V16h7L39 0l-9 16h7zM80 10l-18 3 4 5a27 27 0 00-7 18 2 2 0 004 0 23 23 0 016-15l4 6zM16 36a2 2 0 004 0 27 27 0 00-7-18l5-5-18-3 7 17 4-6a23 23 0 015 15z"/>
  </symbol>
</svg>
