<svg xmlns="http://www.w3.org/2000/svg" width="71.215" height="64.619">
  <symbol id="graphicLimit" width="71.215" height="64.619" viewBox="0 0 71.215 64.619">
    <path d="M38.905 32.579a.808.808 0 01-.808-.808V1.616a.808.808 0 011.615 0v30.155a.808.808 0 01-.807.808z"/>
    <path d="M38.905 32.135a.809.809 0 01-.781-.6L30.45 2.905a.808.808 0 011.562-.418l7.674 28.63a.809.809 0 01-.572.99.83.83 0 01-.209.028zM24.334 17.996l-4.582-7.934-4.58-7.933a3.218 3.218 0 00-5.577 0l-4.58 7.933-4.58 7.934a3.219 3.219 0 002.787 4.829h18.324a3.22 3.22 0 002.788-4.829z"/>
    <path fill="#fff" d="M10.345 18.612a1.827 1.827 0 111.837 1.852 1.773 1.773 0 01-1.837-1.852zm.673-2.879l-.468-9.246h3.246l-.449 9.246z"/>
    <path fill="none" d="M-.001.52H24.77v24.828H-.001z"/>
    <path d="M38.905 0a32.124 32.124 0 00-18.926 6.147l1.634 2.829a29.036 29.036 0 018.975-4.528l7.241 27.014v.308a1.077 1.077 0 102.154 0V3.258A29.09 29.09 0 1110.77 24.98H7.444A32.306 32.306 0 1038.905 0zm-1.077 23.145L32.67 3.911a29.02 29.02 0 015.156-.653z"/>
  </symbol>
</svg>
