<svg xmlns="http://www.w3.org/2000/svg" width="79.506" height="88.318" viewBox="0 0 79.506 88.318"><defs><style>.a{fill:#fff;}.b{fill:#e77525;}</style></defs><g transform="translate(0 0)"><path class="a" d="M48,73.252,54.26,72,69.285,84.521l8.764-5.008,5.008,1.252L99.335,97.041l-1.252,1.252L48,99.545Z" transform="translate(-34.853 -13.153)"/><path class="b" d="M101,57.573H48.229a1.877,1.877,0,0,0-1.878,1.878V103.23a1.878,1.878,0,0,0,1.878,1.878H101a1.879,1.879,0,0,0,1.878-1.878V59.451A1.878,1.878,0,0,0,101,57.573Zm-1.878,3.756V96.814L85.306,83A8.758,8.758,0,0,0,72.92,83l-3.443,3.443L59.287,76.249a8.725,8.725,0,0,0-9.18-2.033V61.329Zm-49.017,17.1a5.123,5.123,0,0,1,6.525.477L66.821,89.1,55.579,100.337l-1.014,1.014H50.107Zm9.769,22.924L70.805,90.423l4.77-4.772a5.122,5.122,0,0,1,7.075,0l15.7,15.7Z" transform="translate(-35.269 -16.789)"/><path class="b" d="M83.152,78.174a7.36,7.36,0,1,0-7.36-7.36A7.369,7.369,0,0,0,83.152,78.174Zm0-10.963a3.6,3.6,0,1,1-3.6,3.6A3.608,3.608,0,0,1,83.152,67.211Z" transform="translate(-27.848 -15.307)"/><path class="b" d="M68.432,60.684a1.878,1.878,0,1,0,3.756,0V40.569H79.3L70.31,25,61.32,40.569h7.112Z" transform="translate(-31.496 -25)"/><path class="b" d="M105.033,32.926,87.246,35.543,91.7,41.172A27.379,27.379,0,0,0,85,58.686a1.878,1.878,0,0,0,3.756,0,23.11,23.11,0,0,1,5.331-14.5l4.321,5.457Z" transform="translate(-25.527 -23.002)"/><path class="b" d="M53.777,58.686a1.878,1.878,0,0,0,3.756,0,27.379,27.379,0,0,0-6.7-17.514l4.457-5.629L37.5,32.926l6.625,16.713,4.321-5.457A23.11,23.11,0,0,1,53.777,58.686Z" transform="translate(-37.5 -23.002)"/></g></svg>