<svg xmlns="http://www.w3.org/2000/svg" width="93.1" height="75.5">
  <symbol id="graphicBulk" width="93.1" height="75.5" viewBox="0 0 93.105 75.461">
    <path d="M56 40a7 7 0 10-7-7 7 7 0 007 7zm0-11a4 4 0 11-3 4 4 4 0 013-4z"/>
    <path d="M16 48l1 4a4 4 0 010 3 9 9 0 013 4l3 5h44L50 45l-5-2-11 6-10-9-6-4-4 2v8a9 9 0 012 2z" fill="#fff"/>
    <path d="M9 65a7 7 0 01-2-1 7 7 0 01-4-3l-2-6a7 7 0 1112-6l2 4a2 2 0 11-3 1l-2-3a4 4 0 00-6 3l2 5a4 4 0 005 2 2 2 0 011 3 7 7 0 01-3 1z"/>
    <path d="M14 75a7 7 0 01-2 0 7 7 0 01-4-4l-1-3a2 2 0 112-1l2 3a4 4 0 007-3l-3-6a4 4 0 00-5-2 2 2 0 01-1-3 7 7 0 019 4l3 6a7 7 0 01-7 9zm53-57H14a2 2 0 00-2 2v24a9 9 0 014 4v1-10a5 5 0 016 1l11 10-12 11 2 4a9 9 0 010 1h44a2 2 0 002-2V20a2 2 0 00-2-2zM26 62l11-11 4-5a5 5 0 017 0l16 16zm39-4L51 44a9 9 0 00-12 0l-4 3-10-10a9 9 0 00-9-2V22h49z"/>
    <path d="M91 0H37a2 2 0 00-2 2v16h4v-3h15v3h3v-3h15v8h-3v3h3v8h-3v3h3v8h-3v4h22a2 2 0 002-2V2a2 2 0 00-2-2zM54 12H39V4h15zm18 0H57V4h15zm17 33H75v-8h14zm0-11H75v-8h14zm0-11H75v-8h14zm0-11H75V4h14z"/>
  </symbol>
</svg>
