<svg xmlns="http://www.w3.org/2000/svg" width="93.105" height="75.461">
  <symbol id="graphicBulk" width="93.105" height="75.461" viewBox="0 0 93.105 75.461">
    <path d="M56.274 40.436a7.36 7.36 0 10-7.36-7.36 7.369 7.369 0 007.36 7.36zm0-10.963a3.6 3.6 0 11-3.6 3.6 3.608 3.608 0 013.6-3.6z"/>
    <path d="M9.485 64.827a6.946 6.946 0 01-2.525-.478 6.866 6.866 0 01-3.818-3.657l-2.56-5.841a6.91 6.91 0 1112.656-5.548l1.409 3.212a1.594 1.594 0 11-2.92 1.281l-1.41-3.218a3.721 3.721 0 00-6.816 2.987l2.56 5.842a3.736 3.736 0 004.9 1.913 1.6 1.6 0 011.282 2.921 6.871 6.871 0 01-2.758.586z"/>
    <path d="M14.264 75.458a6.941 6.941 0 01-2.524-.48 6.866 6.866 0 01-3.817-3.66l-1.409-3.212a1.594 1.594 0 112.92-1.28l1.409 3.212a3.721 3.721 0 006.816-2.984l-2.56-5.842a3.736 3.736 0 00-4.9-1.913 1.595 1.595 0 01-1.281-2.921 6.923 6.923 0 019.1 3.555l2.56 5.841a6.911 6.911 0 01-6.313 9.685z"/>
    <g>
      <path d="M66.701 18.353H13.93a1.877 1.877 0 00-1.878 1.878v23.972a9.344 9.344 0 013.478 4.094l.278.632v-9.722a5.12 5.12 0 016.525.477L32.522 49.88 21.28 61.117l-.006.006 1.6 3.646a9.378 9.378 0 01.4 1.118h43.427a1.879 1.879 0 001.878-1.878V20.231a1.878 1.878 0 00-1.878-1.878zM25.577 62.131l10.929-10.928 4.77-4.772a5 5 0 017.075 0l15.7 15.7zm39.248-4.537L51.007 43.78a8.758 8.758 0 00-12.386 0l-3.443 3.443-10.19-10.194a8.725 8.725 0 00-9.18-2.033V22.109h49.017z"/>
    </g>
    <g>
      <path d="M91.118 0H37.28a1.984 1.984 0 00-1.985 1.985v16.368h3.969v-3.535H54.18v3.535h2.5v-3.535h15.657v8.451H68.58v2.5h3.756v8.456H68.58v2.5h3.756v8.345H68.58v3.969h22.537a1.984 1.984 0 001.985-1.985V1.985A1.984 1.984 0 0091.118 0zM54.18 12.314H39.264V3.969H54.18zm18.155 0H56.687V3.969h15.65zm16.8 32.76H74.841v-8.345h14.292zm0-10.849H74.841v-8.451h14.292zm0-10.956H74.841v-8.451h14.292zm0-10.956H74.841V3.969h14.292z"/>
    </g>
  </symbol>
</svg>
