<svg xmlns="http://www.w3.org/2000/svg" width="93.105" height="75.461" viewBox="0 0 93.105 75.461"><defs><style>.a{fill:#e77525;}.b{fill:#fff;}</style></defs><g transform="translate(-0.001 0)"><path class="a" d="M81.152,62.174a7.36,7.36,0,1,0-7.36-7.36A7.369,7.369,0,0,0,81.152,62.174Zm0-10.963a3.6,3.6,0,1,1-3.6,3.6A3.608,3.608,0,0,1,81.152,51.211Z" transform="translate(-24.877 -21.738)"/><g transform="translate(0 18.353)"><path class="b" d="M47.414,67.881l1.409,3.212a4.078,4.078,0,0,1,.065,3.136c-.031.079-.079.148-.114.224a9.321,9.321,0,0,1,3.421,4.058L54.4,83.545H98.587L82.31,64.764,77.3,62.26l-11.269,6.26L56.017,59.756,49.756,56,46,57.252v8.363A9.394,9.394,0,0,1,47.414,67.881Z" transform="translate(-31.882 -37.936)"/><g transform="translate(0 26.814)"><path class="a" d="M44.21,82.649a6.946,6.946,0,0,1-2.525-.478,6.866,6.866,0,0,1-3.818-3.657l-2.56-5.841a6.909,6.909,0,1,1,12.656-5.548l1.409,3.212a1.594,1.594,0,1,1-2.92,1.281L45.042,68.4a3.721,3.721,0,0,0-6.816,2.987l2.56,5.842a3.736,3.736,0,0,0,4.9,1.913,1.6,1.6,0,0,1,1.282,2.921A6.871,6.871,0,0,1,44.21,82.649Z" transform="translate(-34.724 -62.989)"/><g transform="translate(6.38 10.63)"><path class="a" d="M47.705,91.14a6.941,6.941,0,0,1-2.524-.48A6.866,6.866,0,0,1,41.364,87l-1.409-3.212a1.594,1.594,0,1,1,2.92-1.28l1.409,3.212A3.721,3.721,0,0,0,51.1,82.736l-2.56-5.842a3.736,3.736,0,0,0-4.9-1.913,1.595,1.595,0,0,1-1.281-2.921,6.923,6.923,0,0,1,9.1,3.555l2.56,5.841a6.911,6.911,0,0,1-6.313,9.685Z" transform="translate(-39.82 -71.479)"/></g></g><g transform="translate(12.053)"><path class="a" d="M99,41.573H46.229a1.877,1.877,0,0,0-1.878,1.878V67.423a9.344,9.344,0,0,1,3.478,4.094l.278.632V62.427a5.12,5.12,0,0,1,6.525.477L64.821,73.1,53.579,84.337l-.006.006,1.6,3.646a9.378,9.378,0,0,1,.4,1.118H99a1.879,1.879,0,0,0,1.878-1.878V43.451A1.878,1.878,0,0,0,99,41.573ZM57.876,85.351,68.805,74.423l4.77-4.772a5,5,0,0,1,7.075,0l15.7,15.7Zm39.248-4.537L83.306,67A8.758,8.758,0,0,0,70.92,67l-3.443,3.443L57.287,60.249a8.725,8.725,0,0,0-9.18-2.033V45.329H97.124Z" transform="translate(-44.351 -41.573)"/></g></g><g transform="translate(35.296 0)"><path class="a" d="M118.738,26.915H64.9A1.984,1.984,0,0,0,62.915,28.9V45.268h3.969V41.733H81.8v3.535h2.5V41.733H99.957v8.451H96.2v2.5h3.756V61.14H96.2v2.5h3.756v8.345H96.2v3.969h22.537a1.984,1.984,0,0,0,1.985-1.985V28.9A1.984,1.984,0,0,0,118.738,26.915ZM81.8,39.229H66.884V30.884H81.8Zm18.155,0H84.307V30.884H99.957Zm16.8,32.76H102.461V63.644h14.292Zm0-10.849H102.461V52.689h14.292Zm0-10.956H102.461V41.733h14.292Zm0-10.956H102.461V30.884h14.292Z" transform="translate(-62.915 -26.915)"/></g></g></svg>