<svg xmlns="http://www.w3.org/2000/svg" width="71.215" height="64.619" viewBox="0 0 71.215 64.619"><defs><style>.a{fill:#fff;}.b{fill:#dd6b1e;}.c{fill:none;}.d{fill:#e77525;}</style></defs><g transform="translate(-0.001 0)"><g transform="translate(8.481 1.615)"><path class="a" d="M73.569,30c-.136,0-.269.009-.4.01V60.156L65.626,31.077A33.33,33.33,0,0,0,55.5,36.489l.508.881L60.595,45.3a5.374,5.374,0,0,1-4.654,8.06H43.885a27.511,27.511,0,0,0-1.01,7.33A30.694,30.694,0,1,0,73.569,30Z" transform="translate(-42.875 -30)"/></g><g transform="translate(38.098 0.808)"><path class="b" d="M71.183,61.021a.808.808,0,0,1-.808-.808V30.058a.808.808,0,0,1,1.615,0V60.213A.808.808,0,0,1,71.183,61.021Z" transform="translate(-70.375 -29.25)"/></g><g transform="translate(30.424 1.885)"><path class="b" d="M71.731,60.5a.809.809,0,0,1-.781-.6l-7.674-28.63a.808.808,0,0,1,1.562-.418l7.674,28.63a.809.809,0,0,1-.572.99A.83.83,0,0,1,71.731,60.5Z" transform="translate(-63.249 -30.25)"/></g><path class="b" d="M59.335,46.459l-4.582-7.934-4.58-7.933a3.218,3.218,0,0,0-5.577,0l-4.58,7.933-4.58,7.934a3.219,3.219,0,0,0,2.787,4.829H56.547a3.22,3.22,0,0,0,2.788-4.829Z" transform="translate(-35 -28.463)"/><g transform="translate(10.346 6.487)"><path class="a" d="M44.607,46.648A1.827,1.827,0,1,1,46.444,48.5,1.773,1.773,0,0,1,44.607,46.648Zm.673-2.879-.468-9.246h3.246l-.449,9.246Z" transform="translate(-44.607 -34.523)"/></g><g transform="translate(0 0.52)"><rect class="c" width="24.771" height="24.828"/></g><g transform="translate(6.596 0)"><path class="d" d="M73.435,28.5a32.124,32.124,0,0,0-18.926,6.147l1.634,2.829a29.036,29.036,0,0,1,8.975-4.528l7.241,27.014v.308a1.077,1.077,0,1,0,2.154,0V31.758A29.09,29.09,0,1,1,45.3,53.48H41.974A32.306,32.306,0,1,0,73.435,28.5ZM72.358,51.645,67.2,32.411a29.02,29.02,0,0,1,5.156-.653Z" transform="translate(-41.125 -28.5)"/></g></g></svg>